# xmcd
#
# Track frame offsets: 
#        150
#        17127
#        29700
#        43372
#        61413
#        75861
#        89541
#        107285
#        125107
#        141083
#        156502
#        177553
#
# Disc length: 2557 seconds
#
# Revision: 0
# Processed by: cddbd v1.5.2PL0 Copyright (c) Steve Scherf et al.
# Submitted via: ExactAudioCopyFreeDBPlugin 1.0
#
DISCID=a709fb0c
DTITLE=Christiane - Waiting With the Lights On
DYEAR=2016
DGENRE=Country
TTITLE0=Other Side
TTITLE1=Good Things
TTITLE2=Not From Mississippi
TTITLE3=Cold
TTITLE4=Disappeared
TTITLE5=Public Enemy
TTITLE6=So Long
TTITLE7=Beating Hearts
TTITLE8=Should've Warned Me of You
TTITLE9=Coyote
TTITLE10=What I Can Get
TTITLE11=Mean Anything
EXTD=
EXTT0=
EXTT1=
EXTT2=
EXTT3=
EXTT4=
EXTT5=
EXTT6=
EXTT7=
EXTT8=
EXTT9=
EXTT10=
EXTT11=
PLAYORDER=
